<svg width="120" height="120" viewBox="0 0 120 120" fill="none" xmlns="http://www.w3.org/2000/svg">
<g clip-path="url(#clip0_188_225)">
<path d="M16.3818 96.8213L31.1521 2.30813C31.2406 1.74329 31.5043 1.22053 31.9059 0.81366C32.3076 0.406795 32.8269 0.136398 33.3906 0.0406605C33.9542 -0.0550769 34.5337 0.0286843 35.0472 0.280113C35.5606 0.531542 35.9821 0.937932 36.2521 1.44188L51.5278 29.9325L57.6159 18.3394C57.8474 17.8996 58.1946 17.5315 58.62 17.2746C59.0455 17.0178 59.533 16.8821 60.03 16.8821C60.5269 16.8821 61.0144 17.0178 61.4399 17.2746C61.8653 17.5315 62.2125 17.8996 62.444 18.3394L103.666 96.8213H16.3818Z" fill="#FFA000"/>
<path d="M67.409 60.0047L51.5203 29.9184L16.3818 96.8212L67.409 60.0047Z" fill="#F57C00"/>
<path d="M103.666 96.8212L92.3531 26.8163C92.2692 26.3229 92.0513 25.8621 91.7233 25.4841C91.3953 25.1062 90.9697 24.8256 90.4931 24.6731C90.0165 24.5209 89.5072 24.5028 89.021 24.6208C88.5348 24.7389 88.0905 24.9886 87.7368 25.3425L16.3818 96.8203L55.8646 118.962C57.084 119.643 58.4572 120 59.8537 120C61.2502 120 62.6235 119.643 63.8428 118.962L103.666 96.8212Z" fill="#FFCA28"/>
<path d="M92.353 26.8162C92.2691 26.3229 92.0513 25.8621 91.7233 25.4841C91.3952 25.1062 90.9697 24.8256 90.493 24.6731C90.0165 24.5207 89.5073 24.5025 89.0211 24.6204C88.5349 24.7383 88.0905 24.9878 87.7368 25.3416L73.574 39.5419L62.4374 18.3394C62.2059 17.8996 61.8587 17.5315 61.4333 17.2746C61.0078 17.0178 60.5203 16.8821 60.0234 16.8821C59.5264 16.8821 59.0389 17.0178 58.6134 17.2746C58.188 17.5315 57.8408 17.8996 57.6093 18.3394L51.5212 29.9316L36.2455 1.44187C35.9752 0.937222 35.553 0.53041 35.0386 0.279038C34.5243 0.0276657 33.9439 -0.0555268 33.3796 0.0412409C32.8156 0.13758 32.2962 0.409013 31.895 0.817062C31.4939 1.22511 31.2313 1.74907 31.1446 2.31468L16.3818 96.8212H16.334L16.3809 96.8756L16.7699 97.0669L87.7162 26.0381C88.07 25.6827 88.5149 25.4318 89.002 25.3127C89.4892 25.1937 89.9997 25.2113 90.4775 25.3635C90.9553 25.5157 91.3819 25.7966 91.7105 26.1755C92.039 26.5543 92.2568 27.0164 92.3399 27.5109L103.557 96.8887L103.666 96.8203L92.353 26.8162ZM16.5112 96.6919L31.1512 2.98312C31.2382 2.41738 31.5009 1.89333 31.9022 1.48515C32.3034 1.07698 32.8229 0.805358 33.3871 0.708741C33.9515 0.6122 34.5319 0.695598 35.0462 0.947129C35.5605 1.19866 35.9827 1.60558 36.253 2.1103L51.5268 30.6009L57.6159 19.0078C57.8473 18.5681 58.1946 18.1999 58.62 17.9431C59.0454 17.6862 59.533 17.5505 60.0299 17.5505C60.5269 17.5505 61.0144 17.6862 61.4398 17.9431C61.8653 18.1999 62.2125 18.5681 62.444 19.0078L73.3546 39.7594L16.5093 96.6919H16.5112Z" fill="white" fill-opacity="0.2"/>
<path opacity="0.2" d="M63.8427 118.294C62.6234 118.975 61.2501 119.332 59.8536 119.332C58.4571 119.332 57.0839 118.975 55.8646 118.294L16.4755 96.2156L16.3799 96.8222L55.8627 118.957C57.082 119.637 58.4553 119.995 59.8518 119.995C61.2483 119.995 62.6215 119.637 63.8408 118.957L103.666 96.8222L103.563 96.1941L63.8408 118.296L63.8427 118.294Z" fill="#A52714"/>
</g>
<defs>
<clipPath id="clip0_188_225">
<rect width="120" height="120" fill="white"/>
</clipPath>
</defs>
</svg>
