<svg width="120" height="120" viewBox="0 0 120 120" fill="none" xmlns="http://www.w3.org/2000/svg">
<g clip-path="url(#clip0_189_231)">
<path d="M92.8498 47.1703C89.4317 46.0941 87.6673 46.4569 84.0833 46.0641C78.5426 45.4594 76.3348 43.29 75.3983 37.7081C74.8742 34.5919 75.4929 30.0291 74.1551 27.2044C71.5967 21.8175 65.6098 19.4016 59.5958 20.7806C54.5173 21.9469 50.292 27.03 50.0576 32.2481C49.7904 38.2059 53.1795 43.29 58.9986 45.045C61.7642 45.8794 64.7014 46.2994 67.5889 46.5122C72.8848 46.8994 73.2917 49.8478 74.7233 52.275C75.627 53.805 76.5017 55.3125 76.5017 59.8753C76.5017 64.4381 75.6214 65.9447 74.7242 67.4747C73.2917 69.8963 71.5245 71.4825 66.2286 71.8744C63.3411 72.0881 60.3973 72.5081 57.6392 73.3435C51.8192 75.1031 48.4301 80.1806 48.6973 86.1394C48.9317 91.3575 53.157 96.4406 58.2354 97.6069C64.2495 98.9906 70.2364 96.57 72.7948 91.1831C74.1383 88.3584 74.8742 85.1578 75.3983 82.0425C76.3404 76.4597 78.5483 74.2903 84.0833 73.6847C87.6673 73.2928 91.377 73.6847 94.7361 71.7741C98.2845 69.1772 101.456 65.2772 101.456 59.8753C101.456 54.4716 98.0389 48.8072 92.8498 47.1703Z" fill="#F44250"/>
<path d="M36 72.5372C29.0157 72.5372 23.3175 66.8203 23.3175 59.8106C23.3175 52.8019 29.0147 47.085 35.9991 47.085C42.9835 47.085 48.6816 52.8019 48.6816 59.8106C48.6816 66.8137 42.9788 72.5372 35.9991 72.5372H36ZM12.6375 98.4C5.66254 98.3831 -0.0168375 92.6437 3.75081e-05 85.6284C0.0169125 78.6253 5.7366 72.9253 12.7266 72.9478C19.7053 72.9647 25.3857 78.7041 25.3641 85.7184C25.3472 92.7159 19.6266 98.4169 12.6375 98.4ZM106.868 98.4C99.8719 98.4384 94.1307 92.7609 94.0903 85.7691C94.0519 78.7491 99.7097 72.9872 106.677 72.9478C113.673 72.9084 119.415 78.5859 119.454 85.5778C119.493 92.5922 113.835 98.3606 106.868 98.4Z" fill="white"/>
</g>
<defs>
<clipPath id="clip0_189_231">
<rect width="120" height="120" fill="white"/>
</clipPath>
</defs>
</svg>
